<?xml version="1.0" encoding="UTF-8"?>
<svg xmlns="http://www.w3.org/2000/svg" viewBox="0 0 1024 1024" width="1024" height="1024" shape-rendering="geometricPrecision" text-rendering="geometricPrecision" role="img" aria-label="iss-in.space mask icon">
  
  <style>
    svg { overflow: visible; }
    
  </style>
  <g transform="matrix(1.58250119 0 0 1.58250119 -301.20779838 -233.16024727)">
    <path d="M 725.75 428.25 L 708.25 429.00 L 703.00 435.25 L 701.00 439.50 L 698.00 442.25 L 698.00 443.50 L 694.00 447.25 L 694.00 448.50 L 677.00 467.25 L 677.00 468.50 L 675.25 469.00 L 674.00 471.50 L 666.00 479.25 L 666.00 480.50 L 663.25 482.00 L 662.00 484.50 L 625.50 520.00 L 624.25 520.00 L 617.50 527.00 L 616.25 527.00 L 610.50 533.00 L 609.25 533.00 L 598.50 543.00 L 597.25 543.00 L 593.50 547.00 L 592.25 547.00 L 587.50 552.00 L 582.25 555.00 L 569.50 566.00 L 568.25 566.00 L 559.50 573.00 L 555.25 575.00 L 548.50 581.00 L 545.25 582.00 L 542.50 585.00 L 541.25 585.00 L 524.50 597.00 L 521.25 598.00 L 516.50 602.00 L 513.25 603.00 L 505.50 609.00 L 500.25 611.00 L 498.50 613.00 L 493.25 615.00 L 491.50 617.00 L 486.25 619.00 L 484.50 621.00 L 482.25 621.00 L 480.50 623.00 L 471.25 627.00 L 469.50 629.00 L 467.25 629.00 L 461.25 632.00 L 459.50 634.00 L 457.25 634.00 L 442.50 642.00 L 440.25 642.00 L 435.50 645.00 L 433.25 645.00 L 428.50 648.00 L 426.25 648.00 L 423.50 650.00 L 421.25 650.00 L 413.50 654.00 L 411.25 654.00 L 410.50 655.00 L 408.25 655.00 L 407.50 656.00 L 402.25 657.00 L 399.50 659.00 L 396.25 659.00 L 395.50 660.00 L 393.25 660.00 L 386.50 663.00 L 383.25 663.00 L 382.50 664.00 L 372.25 666.00 L 371.50 667.00 L 367.25 667.00 L 363.50 669.00 L 353.25 670.00 L 352.50 671.00 L 346.25 671.00 L 345.50 672.00 L 336.25 672.00 L 335.50 673.00 L 310.25 673.00 L 309.50 672.00 L 301.25 672.00 L 300.50 671.00 L 293.25 670.00 L 282.25 665.00 L 271.75 655.50 L 270.75 652.25 L 268.75 650.50 L 268.75 648.25 L 266.75 645.50 L 266.75 641.25 L 265.75 640.50 L 265.75 626.25 L 266.75 625.50 L 266.75 620.25 L 268.75 616.50 L 268.75 613.25 L 271.75 607.50 L 272.75 602.25 L 279.75 588.25 L 281.75 586.50 L 283.75 581.25 L 285.75 579.50 L 285.75 578.25 L 287.75 576.50 L 291.75 569.25 L 294.75 566.50 L 296.75 562.25 L 302.75 555.50 L 302.75 554.25 L 315.75 540.50 L 315.75 539.25 L 348.25 506.75 L 349.50 506.75 L 358.25 497.75 L 359.50 497.75 L 360.25 495.75 L 361.50 495.75 L 372.25 485.75 L 377.50 482.75 L 381.25 478.75 L 382.50 478.75 L 386.25 474.75 L 391.50 471.75 L 395.25 467.75 L 396.50 467.75 L 407.25 458.75 L 410.50 457.75 L 417.25 451.75 L 418.50 451.75 L 420.25 449.75 L 421.50 449.75 L 423.25 447.75 L 424.50 447.75 L 426.25 445.75 L 427.50 445.75 L 429.25 443.75 L 430.50 443.75 L 432.25 441.75 L 433.50 441.75 L 435.25 439.75 L 436.50 439.75 L 438.25 437.75 L 439.50 437.75 L 449.75 430.50 L 440.50 421.00 L 439.25 421.00 L 434.50 425.00 L 431.25 426.00 L 429.50 428.00 L 428.25 428.00 L 426.50 430.00 L 419.25 434.00 L 416.50 437.00 L 413.25 438.00 L 399.50 449.00 L 392.25 453.00 L 388.50 457.00 L 387.25 457.00 L 380.50 463.00 L 379.25 463.00 L 374.50 468.00 L 373.25 468.00 L 366.50 474.00 L 365.25 474.00 L 344.50 493.00 L 343.25 493.00 L 331.50 505.00 L 330.25 505.00 L 317.00 518.25 L 317.00 519.50 L 314.00 521.25 L 314.00 522.50 L 301.00 535.25 L 301.00 536.50 L 291.00 547.25 L 291.00 548.50 L 285.00 555.25 L 283.00 559.50 L 280.00 562.25 L 280.00 563.50 L 274.00 571.25 L 268.00 583.50 L 266.00 585.25 L 262.00 593.25 L 262.00 595.50 L 260.00 598.25 L 260.00 600.50 L 258.00 603.25 L 258.00 605.50 L 257.00 606.25 L 257.00 608.50 L 254.00 615.25 L 253.00 627.50 L 252.00 628.25 L 252.00 638.50 L 253.00 639.25 L 253.00 646.50 L 254.00 647.25 L 256.00 655.50 L 260.00 662.50 L 263.00 665.25 L 263.00 666.50 L 268.25 671.75 L 269.50 671.75 L 275.25 676.75 L 285.25 681.75 L 295.50 683.75 L 296.25 684.75 L 299.50 684.75 L 300.25 685.75 L 306.50 685.75 L 307.25 686.75 L 337.50 686.75 L 338.25 685.75 L 352.50 684.75 L 353.25 683.75 L 367.50 681.75 L 368.25 680.75 L 376.50 679.75 L 377.25 678.75 L 380.50 678.75 L 384.25 676.75 L 387.50 676.75 L 391.25 674.75 L 394.50 674.75 L 395.25 673.75 L 397.50 673.75 L 398.25 672.75 L 412.50 668.75 L 415.25 666.75 L 423.50 664.75 L 431.25 660.75 L 433.50 660.75 L 447.25 653.75 L 449.50 653.75 L 466.25 644.75 L 468.50 644.75 L 474.50 641.75 L 476.25 639.75 L 478.50 639.75 L 480.25 637.75 L 498.50 628.75 L 500.25 626.75 L 512.50 620.75 L 517.25 616.75 L 520.50 615.75 L 525.25 611.75 L 528.50 610.75 L 530.25 608.75 L 531.50 608.75 L 533.25 606.75 L 534.50 606.75 L 536.25 604.75 L 537.50 604.75 L 539.25 602.75 L 546.50 598.75 L 549.25 595.75 L 552.50 594.75 L 562.25 586.75 L 566.50 584.75 L 569.25 581.75 L 570.50 581.75 L 573.25 578.75 L 574.50 578.75 L 577.25 575.75 L 578.50 575.75 L 581.25 572.75 L 582.50 572.75 L 585.25 569.75 L 590.50 566.75 L 594.25 562.75 L 599.50 559.75 L 614.25 546.75 L 615.50 546.75 L 623.25 538.75 L 624.50 538.75 L 631.25 531.75 L 632.50 531.75 L 643.25 520.75 L 644.50 520.75 L 681.75 483.50 L 681.75 482.25 L 689.75 474.50 L 689.75 473.25 L 705.75 455.50 L 705.75 454.25 L 712.75 446.50 L 715.75 441.25 L 719.75 437.50 L 719.75 436.25 Z M 508.00 358.25 L 509.00 360.50 L 511.50 361.75 L 529.25 379.75 L 533.50 378.75 L 546.75 371.50 L 524.50 351.00 L 522.25 351.00 L 517.50 354.00 L 512.25 355.00 Z M 570.00 330.25 L 571.25 332.75 L 572.50 332.75 L 581.25 341.75 L 582.50 341.75 L 592.25 350.75 L 595.50 350.75 L 597.25 348.75 L 599.50 348.75 L 604.25 345.75 L 608.75 344.50 L 608.75 343.25 L 601.50 336.00 L 600.25 336.00 L 587.50 324.00 L 581.25 325.00 L 576.50 328.00 L 574.25 328.00 Z M 568.75 320.25 L 562.50 315.00 L 560.25 315.00 L 557.50 317.00 L 550.25 319.00 L 543.50 323.00 L 541.25 323.00 L 539.00 324.25 L 539.00 325.50 L 545.25 330.75 L 548.50 330.75 L 558.25 325.75 L 560.50 325.75 L 565.25 322.75 L 567.50 322.75 Z M 669.00 278.25 L 675.25 284.75 L 676.50 284.75 L 682.25 289.75 L 683.50 288.75 L 688.50 288.75 L 689.25 287.75 L 713.50 287.75 L 714.25 288.75 L 717.50 288.75 L 718.25 289.75 L 721.50 289.75 L 722.25 290.75 L 730.50 292.75 L 737.25 297.75 L 738.50 297.75 L 746.00 306.25 L 750.00 315.25 L 750.00 318.50 L 751.00 319.25 L 751.00 339.50 L 750.00 340.25 L 749.00 349.50 L 751.25 351.75 L 752.50 351.75 L 758.25 357.75 L 760.75 357.50 L 762.75 347.25 L 763.75 346.50 L 763.75 340.25 L 764.75 339.50 L 764.75 321.25 L 763.75 320.50 L 763.75 315.25 L 762.75 314.50 L 761.75 308.25 L 757.75 300.25 L 755.75 298.50 L 753.75 294.25 L 746.50 287.00 L 732.50 279.00 L 730.25 279.00 L 726.50 277.00 L 722.25 277.00 L 721.50 276.00 L 716.25 276.00 L 715.50 275.00 L 708.25 275.00 L 707.50 274.00 L 683.25 275.00 L 682.50 276.00 L 677.25 276.00 L 676.50 277.00 L 670.25 277.00 Z M 776.75 389.25 L 768.50 381.00 L 767.25 381.00 L 752.50 367.00 L 751.25 367.00 L 747.50 363.00 L 746.25 363.00 L 744.50 360.00 L 743.25 360.00 L 737.50 354.00 L 736.25 354.00 L 729.50 347.00 L 728.25 347.00 L 708.50 329.00 L 700.50 333.00 L 697.25 333.00 L 686.50 323.00 L 685.25 323.00 L 677.75 315.50 L 677.75 314.25 L 685.75 309.25 L 623.50 254.00 L 615.25 256.00 L 606.50 261.00 L 604.25 261.00 L 600.25 263.00 L 599.00 264.50 L 608.25 273.75 L 609.50 273.75 L 616.25 280.75 L 617.50 280.75 L 629.25 292.75 L 630.50 292.75 L 648.25 309.75 L 649.50 309.75 L 660.25 320.75 L 662.50 320.75 L 667.25 317.75 L 670.50 317.75 L 673.00 320.25 L 673.00 321.50 L 671.50 323.00 L 665.50 326.00 L 663.25 326.00 L 656.50 330.00 L 654.25 330.00 L 651.50 332.00 L 648.25 332.00 L 645.75 329.50 L 645.75 327.25 L 648.25 325.75 L 650.50 325.75 L 651.75 323.25 L 642.50 314.00 L 641.25 314.00 L 633.50 306.00 L 632.25 306.00 L 623.50 297.00 L 622.25 297.00 L 613.50 288.00 L 612.25 288.00 L 606.50 282.00 L 605.25 282.00 L 590.50 268.00 L 587.25 268.00 L 577.50 273.00 L 570.25 275.00 L 566.00 277.25 L 568.00 281.50 L 569.50 281.75 L 577.25 289.75 L 578.50 289.75 L 589.25 300.75 L 590.50 300.75 L 601.25 311.75 L 603.00 312.25 L 603.25 313.75 L 604.50 313.75 L 612.25 321.75 L 613.50 321.75 L 624.25 332.75 L 625.50 332.75 L 627.25 334.75 L 629.50 334.75 L 632.25 332.75 L 638.50 331.75 L 640.00 333.25 L 640.00 336.50 L 631.50 341.00 L 629.25 341.00 L 624.50 344.00 L 622.25 344.00 L 617.50 347.00 L 615.25 347.00 L 602.50 354.00 L 600.25 354.00 L 595.50 357.00 L 593.25 357.00 L 584.50 362.00 L 582.25 362.00 L 578.25 364.00 L 572.75 358.50 L 572.75 357.25 L 574.75 356.50 L 574.75 351.25 L 569.50 346.00 L 558.25 347.00 L 550.50 340.00 L 549.25 340.00 L 542.50 333.00 L 541.25 333.00 L 520.50 314.00 L 512.25 314.00 L 510.00 316.25 L 509.00 320.50 L 511.00 324.50 L 519.00 331.25 L 519.00 333.50 L 513.25 335.00 L 501.50 341.00 L 496.25 342.00 L 495.00 343.25 L 495.00 345.50 L 496.50 345.75 L 501.25 350.75 L 502.50 350.75 L 514.25 344.75 L 516.50 344.75 L 523.25 340.75 L 528.50 339.75 L 538.25 348.75 L 539.50 348.75 L 543.25 352.75 L 545.00 353.25 L 544.00 355.25 L 544.00 359.50 L 550.25 366.75 L 557.50 364.75 L 563.00 370.25 L 562.50 372.00 L 560.25 372.00 L 549.50 378.00 L 547.25 378.00 L 542.50 381.00 L 540.25 381.00 L 529.50 387.00 L 522.25 389.00 L 513.50 394.00 L 508.25 394.00 L 505.75 391.50 L 505.75 389.25 L 513.50 385.75 L 513.75 384.25 L 454.50 325.00 L 453.25 325.00 L 449.50 321.00 L 442.25 323.00 L 437.50 326.00 L 435.25 326.00 L 433.50 328.00 L 426.25 330.00 L 423.00 332.25 L 487.25 396.75 L 489.50 396.75 L 494.25 393.75 L 498.50 393.75 L 502.00 397.25 L 500.50 400.00 L 498.25 400.00 L 491.50 404.00 L 489.25 404.00 L 477.50 410.00 L 474.25 410.00 L 470.75 406.50 L 470.75 405.25 L 478.75 401.25 L 413.50 336.00 L 411.25 336.00 L 409.50 338.00 L 407.25 338.00 L 402.50 341.00 L 400.25 341.00 L 395.50 344.00 L 393.25 344.00 L 387.00 347.25 L 389.00 349.25 L 389.00 350.50 L 451.25 413.75 L 461.25 408.75 L 463.50 408.75 L 484.00 429.25 L 483.50 431.00 L 475.25 434.00 L 474.00 436.50 L 479.00 441.25 L 479.00 442.50 L 480.50 442.75 L 485.00 447.25 L 485.00 448.50 L 526.00 489.25 L 526.00 490.50 L 530.00 493.25 L 530.00 494.50 L 539.25 503.75 L 566.50 490.75 L 566.75 489.25 L 501.50 424.00 L 499.25 423.00 L 494.50 426.00 L 490.25 427.00 L 489.75 425.25 L 486.75 422.50 L 488.25 419.75 L 490.50 419.75 L 510.25 409.75 L 514.50 409.75 L 518.00 413.25 L 518.00 414.50 L 510.00 419.50 L 576.25 484.75 L 580.50 484.75 L 591.25 478.75 L 593.50 478.75 L 595.25 476.75 L 601.25 473.75 L 603.50 473.75 L 603.75 472.25 L 536.50 407.00 L 526.25 411.00 L 521.75 406.50 L 522.25 404.75 L 526.25 402.75 L 528.50 402.75 L 539.25 396.75 L 541.50 396.75 L 550.25 391.75 L 552.50 391.75 L 561.25 386.75 L 563.50 386.75 L 575.50 380.75 L 584.25 389.75 L 585.50 389.75 L 592.25 396.75 L 594.00 397.25 L 593.50 400.00 L 576.25 408.00 L 575.00 410.25 L 576.00 417.50 L 578.00 421.50 L 582.25 425.75 L 587.50 424.75 L 607.25 414.75 L 616.50 415.75 L 621.75 411.50 L 622.75 408.25 L 624.25 406.75 L 645.75 396.50 L 646.75 393.25 L 645.75 392.50 L 645.75 388.25 L 643.75 384.25 L 639.50 380.00 L 636.25 380.00 L 628.50 384.00 L 626.25 384.00 L 624.50 386.00 L 622.25 386.00 L 617.50 389.00 L 610.25 391.00 L 594.50 377.00 L 593.25 377.00 L 590.75 374.50 L 590.75 373.25 L 593.50 372.75 L 598.25 369.75 L 600.50 369.75 L 611.25 363.75 L 613.50 363.75 L 629.25 355.75 L 631.50 355.75 L 638.25 351.75 L 640.50 351.75 L 651.25 345.75 L 653.50 345.75 L 656.25 348.75 L 658.00 349.25 L 658.00 351.50 L 650.25 355.00 L 650.00 356.50 L 652.25 358.75 L 653.50 358.75 L 654.00 360.50 L 656.50 361.75 L 658.25 364.75 L 659.50 364.75 L 666.25 371.75 L 667.50 371.75 L 676.25 380.75 L 677.50 380.75 L 687.25 390.75 L 688.50 390.75 L 700.25 402.75 L 701.50 402.75 L 717.25 417.75 L 720.50 417.75 L 729.25 412.75 L 731.50 412.75 L 743.50 406.75 L 734.50 397.00 L 733.25 397.00 L 716.50 381.00 L 715.25 381.00 L 709.50 375.00 L 708.25 375.00 L 699.50 366.00 L 698.25 366.00 L 674.50 344.00 L 665.25 348.00 L 660.75 343.50 L 662.25 340.75 L 664.50 340.75 L 669.25 337.75 L 671.50 337.75 L 684.25 330.75 L 685.50 330.75 L 690.00 335.25 L 690.00 336.50 L 683.00 340.50 L 695.25 351.75 L 696.50 351.75 L 703.25 358.75 L 704.50 358.75 L 712.25 366.75 L 713.50 366.75 L 731.25 383.75 L 732.50 383.75 L 744.25 394.75 L 745.50 394.75 L 752.25 401.75 L 776.50 390.75 Z M 484.75 437.25 L 487.25 434.75 L 491.50 433.75 L 493.25 431.75 L 499.50 430.75 L 505.25 436.75 L 508.00 438.25 L 508.00 439.50 L 535.25 466.75 L 537.00 467.25 L 537.00 468.50 L 551.25 482.75 L 553.00 483.25 L 554.25 485.75 L 556.00 486.25 L 556.00 488.50 L 554.50 490.00 L 551.25 491.00 L 549.50 493.00 L 547.25 493.00 L 541.25 496.00 L 535.50 490.00 L 533.75 489.50 L 532.50 487.00 L 530.75 486.50 L 530.50 485.00 L 529.25 485.00 L 525.75 481.50 L 524.50 479.00 L 521.75 477.50 L 521.75 476.25 L 499.75 454.50 L 499.75 453.25 L 497.50 451.00 L 496.25 451.00 L 488.75 443.50 L 488.75 442.25 L 484.75 438.50 Z M 520.75 420.25 L 535.50 413.75 L 586.25 463.75 L 588.00 464.25 L 588.00 465.50 L 593.00 470.25 L 593.00 471.50 L 583.50 477.00 L 578.25 478.00 L 520.75 421.50 Z M 660.75 356.25 L 672.25 350.75 L 675.50 351.75 L 688.25 364.75 L 689.50 364.75 L 695.25 370.75 L 697.00 371.25 L 697.25 372.75 L 698.50 372.75 L 703.25 377.75 L 704.50 377.75 L 730.25 401.75 L 731.50 401.75 L 733.00 404.50 L 723.50 410.00 L 718.25 411.00 L 711.50 404.00 L 709.75 403.50 L 709.50 402.00 L 708.25 402.00 L 702.50 396.00 L 701.25 396.00 L 686.50 381.00 L 685.25 381.00 L 676.50 372.00 L 675.25 372.00 L 674.50 370.00 L 673.25 370.00 L 665.50 362.00 L 664.25 362.00 L 660.75 358.50 Z M 397.75 348.25 L 400.50 347.75 L 403.25 345.75 L 405.50 345.75 L 409.25 342.75 L 412.50 342.75 L 468.00 398.25 L 468.00 400.50 L 452.25 407.00 L 444.75 399.50 L 444.75 398.25 L 409.75 363.50 L 409.75 362.25 L 408.25 362.00 L 402.75 356.50 L 402.75 355.25 L 399.50 352.00 L 397.75 351.50 Z M 694.75 341.25 L 697.50 340.75 L 707.50 335.75 L 717.25 344.75 L 718.50 344.75 L 725.25 351.75 L 726.50 351.75 L 733.25 358.75 L 734.50 358.75 L 742.25 366.75 L 743.50 366.75 L 752.25 375.75 L 753.50 375.75 L 755.25 378.75 L 759.50 380.75 L 765.25 386.75 L 766.50 386.75 L 767.00 388.50 L 753.25 395.00 L 747.50 389.00 L 742.25 386.00 L 741.50 384.00 L 740.25 384.00 L 733.50 377.00 L 732.25 377.00 L 725.50 370.00 L 724.25 370.00 L 704.50 351.00 L 703.25 351.00 L 699.50 347.00 L 698.25 347.00 L 695.75 344.50 Z M 433.75 333.25 L 436.25 331.75 L 438.50 331.75 L 443.25 328.75 L 448.50 327.75 L 463.25 342.75 L 464.50 342.75 L 469.00 347.25 L 469.00 348.50 L 477.25 356.75 L 478.50 356.75 L 483.00 361.25 L 484.25 363.75 L 485.50 363.75 L 504.00 382.25 L 504.00 383.50 L 493.50 389.00 L 489.25 390.00 L 480.50 381.00 L 478.75 380.50 L 478.50 379.00 L 476.75 378.50 L 476.75 377.25 L 472.50 373.00 L 470.75 372.50 L 470.75 371.25 L 468.50 369.00 L 465.75 367.50 L 465.50 366.00 L 462.75 364.50 L 462.75 363.25 L 459.50 360.00 L 458.25 360.00 L 446.75 348.50 L 446.50 347.00 L 445.25 347.00 L 441.75 343.50 L 441.50 342.00 L 439.75 341.50 L 438.50 339.00 L 437.25 339.00 L 434.75 336.50 Z M 575.75 279.25 L 582.25 275.75 L 589.50 273.75 L 604.25 287.75 L 605.50 287.75 L 612.25 294.75 L 613.50 294.75 L 621.25 302.75 L 622.50 302.75 L 630.25 310.75 L 631.50 310.75 L 642.00 321.25 L 642.00 322.50 L 640.50 324.00 L 636.25 325.00 L 631.50 328.00 L 627.25 328.00 L 618.50 319.00 L 617.25 319.00 L 609.50 311.00 L 608.25 311.00 L 596.50 299.00 L 595.25 299.00 L 582.50 286.00 L 581.25 286.00 L 575.75 280.50 Z M 608.75 265.25 L 611.25 263.75 L 613.50 263.75 L 618.25 260.75 L 623.50 260.75 L 637.25 273.75 L 638.50 273.75 L 644.25 279.75 L 645.50 279.75 L 653.25 287.75 L 654.50 287.75 L 661.25 294.75 L 662.50 294.75 L 668.25 300.75 L 669.50 300.75 L 676.00 307.25 L 676.00 308.50 L 673.25 309.00 L 668.50 312.00 L 666.25 312.00 L 663.50 314.00 L 661.25 314.00 L 653.50 306.00 L 652.25 306.00 L 626.50 282.00 L 625.25 282.00 L 618.50 275.00 L 617.25 275.00 L 608.75 266.50 Z" fill="#000000" fill-rule="evenodd"/>
    <rect x="453.39" y="312.45" width="27.22" height="89.10" rx="0.00" fill="#000000" opacity="1.0" transform="rotate(-45.00 467.00 357.00)" />
    <rect x="715.58" y="319.69" width="27.00" height="88.58" rx="0.00" fill="#000000" opacity="1.0" transform="rotate(-48.69 729.08 363.98)" />
    <rect x="416.52" y="327.96" width="28.46" height="90.58" rx="0.00" fill="#000000" opacity="1.0" transform="rotate(-45.00 430.75 373.25)" />
    <rect x="681.78" y="334.76" width="27.00" height="89.99" rx="0.00" fill="#000000" opacity="1.0" transform="rotate(-48.01 695.28 379.75)" />
    <rect x="541.35" y="398.40" width="28.18" height="92.33" rx="0.00" fill="#000000" opacity="1.0" transform="rotate(-45.97 555.44 444.56)" />
    <rect x="503.90" y="416.83" width="29.70" height="89.84" rx="0.00" fill="#000000" opacity="1.0" transform="rotate(-45.00 518.75 461.75)" />
  </g>
</svg>
